# xmcd
# Track frame offsets:
# 150
# 16529
# 35946
# 48184
# 66635
# 77580
# 89279
# 108260
# 120907
# 134849
# 149547
# 168408
# 178974
#
# Disc length: 2475 seconds
# Revision: 1
# Processed by: cddbd v1.5.2PL0 Copyright (c) Steve Scherf et al.
# Submitted via: VisiTrax 2.11.2.271 - For more info visit www.synapsa.com
#
DISCID=b509a90d
DTITLE=Slim Dusty - Tall Stories And Sad Songs
DYEAR=1973
DGENRE=Australian Country
TTITLE0=Believe It Or Not
TTITLE1=The Jimberella Kid
TTITLE2=The Dog Who Stole My Hat
TTITLE3=From The Gulf To Adelaide
TTITLE4=Only The Two Of Us Here
TTITLE5=Happy Jack
TTITLE6=The Man From Iron Bark
TTITLE7=The Hangover Song
TTITLE8=Give It A Go
TTITLE9=I  Hope They Fight Again
TTITLE10=Ballad Of The Drover
TTITLE11=Holy Dan
TTITLE12=Cane Toad's Plain Code
EXTD=1996 EMI Music Australia
EXTT0=
EXTT1=
EXTT2=
EXTT3=
EXTT4=
EXTT5=
EXTT6=
EXTT7=
EXTT8=
EXTT9=
EXTT10=
EXTT11=
EXTT12=
PLAYORDER=
